<?xml version="1.0" encoding="UTF-8"?><svg id="Layer_2" xmlns="http://www.w3.org/2000/svg" width="700" height="700" xmlns:xlink="http://www.w3.org/1999/xlink" viewBox="0 0 700 700"><defs><style>.cls-1,.cls-2{fill:none;}.cls-3{fill:url(#linear-gradient);}.cls-4{clip-path:url(#clippath);}.cls-5{fill:#204a5e;}.cls-6{fill:url(#linear-gradient-3);}.cls-7{fill:url(#linear-gradient-2);}.cls-2{stroke:#204a5e;stroke-linecap:round;stroke-linejoin:round;stroke-width:16px;}</style><clipPath id="clippath"><circle class="cls-1" cx="350" cy="350" r="250"/></clipPath><linearGradient id="linear-gradient" x1="350" y1="465" x2="350" y2="700" gradientUnits="userSpaceOnUse"><stop offset="0" stop-color="#4d7188"/><stop offset="1" stop-color="#062638"/></linearGradient><linearGradient id="linear-gradient-2" x1="350" y1="350" x2="350" y2="618" gradientUnits="userSpaceOnUse"><stop offset="0" stop-color="#84afc1"/><stop offset="1" stop-color="#4e7e99"/></linearGradient><linearGradient id="linear-gradient-3" x1="350" y1="210.02" x2="350" y2="509" gradientUnits="userSpaceOnUse"><stop offset="0" stop-color="#aee5ff"/><stop offset="1" stop-color="#94c3d9"/></linearGradient></defs><g class="cls-4"><g><path class="cls-3" d="M700,618v82H0v-82l100-56s68.21-33.53,91.05-39.13c22.85-5.59,32.18,15.85,69.94,14.92,37.77-.93,50.06-72.79,88.91-72.79h.2c38.85,0,51.14,71.86,88.91,72.79,37.76,.93,47.09-20.51,69.94-14.92,21.82,5.35,85.44,36.41,91.05,39.13,.26,.12,100,56,100,56Z"/><path class="cls-7" d="M700,509v109s-99.74-55.88-100-56c-5.61-2.72-69.23-33.78-91.05-39.13-22.85-5.59-32.18,15.85-69.94,14.92-37.77-.93-50.06-72.79-88.91-72.79h-.2c-38.85,0-51.14,71.86-88.91,72.79-37.76,.93-47.09-20.51-69.94-14.92-22.84,5.6-91.05,39.13-91.05,39.13L0,618v-109H100c64.84,0,75.1-47.21,93.75-61.2,18.65-13.99,31.24,13.52,67.61,9.79s52.32-107.59,88.64-107.59,52.27,103.86,88.64,107.59,48.96-23.78,67.61-9.79c18.6,13.95,29.36,60.96,93.75,61.2h100Z"/><path class="cls-6" d="M700,465v44h-100c-64.39-.24-75.15-47.25-93.75-61.2-18.65-13.99-31.24,13.52-67.61,9.79s-52.32-107.59-88.64-107.59-52.27,103.86-88.64,107.59-48.96-23.78-67.61-9.79c-18.65,13.99-28.91,61.2-93.75,61.2H0v-44H100c28.94,0,36.77-9,107.77-115,80.02,119.46,125.99-137.88,142.23-139.98,16.24,2.1,62.21,259.44,142.23,139.98,70.42,105.13,79.39,114.86,107.77,115,.23,.01,100,0,100,0Z"/></g></g><g id="Waves_short"><path class="cls-2" d="M145.12,540.85c17.67-7.9,36.05-15.56,45.93-17.98,22.85-5.59,32.18,15.85,69.94,14.92,37.77-.93,50.06-72.79,88.91-72.79h.2c38.85,0,51.14,71.86,88.91,72.79,37.76,.93,47.09-20.51,69.94-14.92,9.85,2.42,28.22,10.07,45.92,17.99"/><path class="cls-2" d="M118.5,507.56c48.56-8.01,58.53-47.23,75.25-59.76,18.65-13.99,31.24,13.52,67.61,9.79s52.32-107.59,88.64-107.59,52.27,103.86,88.64,107.59,48.96-23.78,67.61-9.79c16.66,12.5,27.03,51.52,75.29,59.69"/><path class="cls-2" d="M600,465c-28.38-.14-37.35-9.87-107.77-115-80.02,119.46-125.99-137.88-142.23-139.98-16.24,2.1-62.21,259.44-142.23,139.98-71,106-78.83,115-107.77,115"/><g><circle class="cls-5" cx="350.4" cy="209.95" r="25.96"/><circle class="cls-5" cx="206" cy="350" r="25.96"/><circle class="cls-5" cx="494" cy="350" r="25.96"/></g></g></svg>